#!OML:ASF X:\für Bonn\!DataBase\2005_08_10_Bjorn_Final\c3d\bjorn.ASF
:FULLY-SPECIFIED
:DEGREES
215
root -17.065 19.42 -3.57192 1442.96 -23.7533 3.57575
lowerback -4.6093 1.99548 4.68614
upperback 6.61078 2.38785 -1.88783
thorax 9.92264 1.58177 -4.33671
lowerneck -4.04199 -0.928225 3.71607
upperneck 13.142 0.195204 -14.6635
head 4.56549 -0.579414 -5.18876
rclavicle -3.11098e-014 3.89618e-014
rhumerus -30.7174 -6.27922 -87.6915
rradius 94.5559
rwrist -5.39878
rhand -22.6846 17.6807
rfingers 7.12502
rthumb 3.74771 -12.2661
lclavicle -3.11098e-014 3.89618e-014
lhumerus -31.5057 -1.59637 86.8349
lradius 23.6683
lwrist -23.3713
lhand -18.7355 -7.32566
lfingers 7.12502
lthumb 7.56045 22.5192
rfemur -12.267 -11.333 11.9776
rtibia 26.2579
rfoot -12.3553 16.9387
rtoes -7.24706
lfemur -18.3306 10.9419 -19.6342
ltibia 31.3566
lfoot -12.8543 -5.18283
ltoes -14.4791
216
root -17.0208 19.415 -3.58783 1443.07 -22.8409 3.57286
lowerback -4.74483 1.98804 4.60057
upperback 6.60403 2.37833 -1.84988
thorax 9.9878 1.57075 -4.24538
lowerneck -4.0371 -0.601799 3.71655
upperneck 13.0491 0.674524 -14.9813
head 4.5839 -0.358167 -5.267
rclavicle 9.17391e-014 -1.86858e-014
rhumerus -31.1663 -6.42558 -87.9407
rradius 91.1279
rwrist -4.70906
rhand -20.6925 16.9225
rfingers 7.12502
rthumb 5.67122 -12.9816
lclavicle 9.17391e-014 -1.86858e-014
lhumerus -31.4285 -1.66744 86.7787
lradius 23.6946
lwrist -23.435
lhand -18.7668 -7.32176
lfingers 7.12502
lthumb 7.53021 22.5242
rfemur -12.3601 -11.4322 11.8928
rtibia 26.3949
rfoot -12.7009 16.2352
rtoes -7.95591
lfemur -17.8768 11.143 -19.2868
ltibia 31.4189
lfoot -12.975 -4.62464
ltoes -13.728
217
root -16.9746 19.41 -3.60349 1443.18 -21.8824 3.59474
lowerback -4.87455 1.96803 4.50186
upperback 6.58519 2.35477 -1.82381
thorax 10.0343 1.55178 -4.16174
lowerneck -4.04724 -0.291636 3.66584
upperneck 12.971 1.13283 -15.2551
head 4.60909 -0.148087 -5.32327
rclavicle -9.54166e-015 1.19271e-014
rhumerus -31.5394 -6.67886 -88.1046
rradius 87.5408
rwrist -3.9513
rhand -18.8798 16.2315
rfingers 7.12502
rthumb 7.42114 -13.6183
lclavicle -9.54166e-015 1.19271e-014
lhumerus -31.3626 -1.83264 86.7785
lradius 23.7402
lwrist -23.3288
lhand -18.7931 -7.30616
lfingers 7.12502
lthumb 7.50482 22.5407
rfemur -12.4387 -11.5411 11.7853
rtibia 26.4991
rfoot -13.0703 15.4902
rtoes -8.7097
lfemur -17.4543 11.3221 -18.9541
ltibia 31.4523
lfoot -13.0246 -4.22594
ltoes -12.59
218
root -16.9275 19.4062 -3.61741 1443.29 -20.9222 3.61752
lowerback -5.01252 1.96499 4.40149
upperback 6.58715 2.35507 -1.81091
thorax 10.1126 1.54598 -4.08767
lowerneck -4.10479 0.000123685 3.67569
upperneck 12.9216 1.56457 -15.525
head 4.6498 0.0494238 -5.39058
rclavicle -2.84262e-014 -2.34566e-014
rhumerus -31.7906 -7.17282 -88.1944
rradius 83.805
rwrist -2.88236
rhand -17.2852 15.8753
rfingers 7.12502
rthumb 8.96013 -13.9144
lclavicle -2.84262e-014 -2.34566e-014
lhumerus -31.2604 -2.07519 86.7962
lradius 23.8105
lwrist -23.149
lhand -18.8959 -7.19723
lfingers 7.12502
lthumb 7.40566 22.6532
rfemur -12.4851 -11.6729 11.6671
rtibia 26.5766
rfoot -13.3937 14.7863
rtoes -9.44148
lfemur -17.0488 11.5456 -18.6159
ltibia 31.4588
lfoot -13.0464 -3.92581
ltoes -11.5241
219
root -16.8798 19.4028 -3.62964 1443.41 -19.9345 3.61776
lowerback -5.16935 1.93945 4.29475
upperback 6.60688 2.32256 -1.77057
thorax 10.2167 1.52322 -3.98462
lowerneck -4.22364 0.285352 3.62812
upperneck 12.8854 1.99508 -15.7954
head 4.7066 0.240395 -5.44821
rclavicle 1.97791e-014 1.59028e-015
rhumerus -31.9373 -7.74672 -88.1966
rradius 80.039
rwrist -1.72907
rhand -15.8604 15.7361
rfingers 7.12502
rthumb 10.3349 -13.99
lclavicle 1.97791e-014 1.59028e-015
lhumerus -31.1607 -2.27915 86.8489
lradius 23.9349
lwrist -22.8586
lhand -18.9768 -7.16471
lfingers 7.12502
lthumb 7.32758 22.6884
rfemur -12.504 -11.7052 11.5663
rtibia 26.6343
rfoot -13.7574 13.976
rtoes -10.0221
lfemur -16.7053 11.7483 -18.2394
ltibia 31.4435
lfoot -12.9949 -3.66604
ltoes -9.92401
220
root -16.8306 19.3983 -3.64156 1443.51 -18.917 3.62091
lowerback -5.29213 1.92392 4.19082
upperback 6.61936 2.30622 -1.74408
thorax 10.2952 1.50842 -3.89669
lowerneck -4.27584 0.543535 3.5557
upperneck 12.7925 2.37524 -15.9959
head 4.72958 0.414792 -5.47905
rclavicle -1.97791e-014 -2.06736e-014
rhumerus -32.0666 -8.39437 -88.1767
rradius 76.3848
rwrist -0.919684
rhand -14.5083 15.5218
rfingers 7.12502
rthumb 11.639 -14.1349
lclavicle -1.97791e-014 -2.06736e-014
lhumerus -31.0354 -2.48586 86.8959
lradius 24.0155
lwrist -22.6101
lhand -19.1057 -7.11965
lfingers 7.12502
lthumb 7.20309 22.7378
rfemur -12.5059 -11.8877 11.4573
rtibia 26.6857
rfoot -14.0849 13.2662
rtoes -10.8521
lfemur -16.3956 12.0108 -17.8679
ltibia 31.409
lfoot -12.8861 -3.4488
ltoes -8.43841
221
root -16.7799 19.3922 -3.65206 1443.62 -17.8804 3.64441
lowerback -5.4213 1.88116 4.04798
upperback 6.62448 2.25612 -1.70572
thorax 10.363 1.47323 -3.77901
lowerneck -4.31388 0.793835 3.42063
upperneck 12.6954 2.74739 -16.1802
head 4.74805 0.583986 -5.49356
rclavicle 3.74709e-014 -2.0276e-014
rhumerus -32.1607 -8.87679 -88.1142
rradius 72.8312
rwrist -0.386986
rhand -13.0401 14.73
rfingers 7.12502
rthumb 13.0545 -14.8415
lclavicle 3.74709e-014 -2.0276e-014
lhumerus -30.977 -2.6809 86.9786
lradius 24.1978
lwrist -22.2705
lhand -19.2671 -7.02075
lfingers 7.12502
lthumb 7.04735 22.8419
rfemur -12.5084 -12.0397 11.3174
rtibia 26.7373
rfoot -14.4015 12.5429
rtoes -11.3921
lfemur -16.1349 12.3506 -17.5302
ltibia 31.3562
lfoot -12.8047 -3.20531
ltoes -7.58414
222
root -16.7291 19.3844 -3.6608 1443.72 -16.812 3.64962
lowerback -5.51371 1.83905 3.9124
upperback 6.61578 2.20728 -1.66068
thorax 10.3938 1.43787 -3.6591
lowerneck -4.34807 1.02312 3.25789
upperneck 12.6527 3.09589 -16.3267
head 4.77932 0.740311 -5.49292
rclavicle -4.80065e-014 3.73715e-014
rhumerus -32.2329 -9.39595 -88.012
rradius 69.275
rwrist 0.0972589
rhand -11.488 13.765
rfingers 7.12502
rthumb 14.5504 -15.7047
lclavicle -4.80065e-014 3.73715e-014
lhumerus -30.9624 -2.94348 87.0995
lradius 24.4013
lwrist -21.8825
lhand -19.443 -6.88841
lfingers 7.12502
lthumb 6.87756 22.9799
rfemur -12.4677 -12.1612 11.1938
rtibia 26.7971
rfoot -14.7219 11.7731
rtoes -11.8712
lfemur -15.8893 12.7778 -17.1714
ltibia 31.2991
lfoot -12.6709 -2.96923
ltoes -7.45054
223
root -16.6765 19.3764 -3.66826 1443.81 -15.7082 3.63227
lowerback -5.58547 1.78404 3.80415
upperback 6.59954 2.13835 -1.607
thorax 10.4031 1.39391 -3.54896
lowerneck -4.29877 1.2377 3.06029
upperneck 12.5399 3.41519 -16.4625
head 4.77098 0.888407 -5.48259
rclavicle -3.99557e-014 1.19271e-014
rhumerus -32.2644 -9.86254 -87.8636
rradius 65.7539
rwrist 0.484106
rhand -9.88503 12.6774
rfingers 7.12502
rthumb 16.0944 -16.6742
lclavicle -3.99557e-014 1.19271e-014
lhumerus -30.9813 -3.01478 87.1789
lradius 24.6283
lwrist -21.7154
lhand -19.6522 -6.79932
lfingers 7.12502
lthumb 6.67562 23.0755
rfemur -12.4022 -12.3749 11.0778
rtibia 26.8542
rfoot -15.0546 11.0608
rtoes -12.3175
lfemur -15.6636 13.1401 -16.7797
ltibia 31.2289
lfoot -12.5729 -2.66775
ltoes -7.34067
224
root -16.6232 19.3687 -3.67525 1443.92 -14.5704 3.61833
lowerback -5.66305 1.71942 3.67575
upperback 6.58364 2.05861 -1.5542
thorax 10.4148 1.34328 -3.43003
lowerneck -4.29974 1.42697 2.83762
upperneck 12.4988 3.70669 -16.5527
head 4.78914 1.0189 -5.45585
rclavicle -1.49089e-014 -1.55052e-014
rhumerus -32.2687 -10.3155 -87.7113
rradius 62.3049
rwrist 0.94898
rhand -8.39946 11.5533
rfingers 7.12502
rthumb 17.5244 -17.6769
lclavicle -1.49089e-014 -1.55052e-014
lhumerus -31.0071 -3.21653 87.296
lradius 24.8974
lwrist -21.4491
lhand -19.8946 -6.68299
lfingers 7.12502
lthumb 6.44156 23.1991
rfemur -12.3212 -12.5679 10.962
rtibia 26.8858
rfoot -15.345 10.3206
rtoes -12.6215
lfemur -15.5021 13.5662 -16.3964
ltibia 31.1605
lfoot -12.4474 -2.35845
ltoes -7.72506
225
root -16.5692 19.361 -3.67925 1444.01 -13.4078 3.60309
lowerback -5.7255 1.66433 3.56723
upperback 6.55098 1.99161 -1.51444
thorax 10.402 1.30031 -3.33497
lowerneck -4.17937 1.59154 2.62975
upperneck 12.3608 3.94557 -16.6348
head 4.75051 1.13542 -5.43042
rclavicle -2.29596e-014 -3.57812e-015
rhumerus -32.2991 -10.7537 -87.5368
rradius 58.945
rwrist 1.22169
rhand -7.05645 10.2912
rfingers 7.12502
rthumb 18.8165 -18.8187
lclavicle -2.29596e-014 -3.57812e-015
lhumerus -31.0942 -3.43299 87.4158
lradius 25.2056
lwrist -21.1523
lhand -20.1227 -6.62138
lfingers 7.12502
lthumb 6.22138 23.2673
rfemur -12.2067 -12.8268 10.8374
rtibia 26.8954
rfoot -15.6388 9.60578
rtoes -13.0957
lfemur -15.3607 13.9376 -16.009
ltibia 31.0757
lfoot -12.3882 -1.99645
ltoes -8.26633
226
root -16.5146 19.354 -3.68181 1444.11 -12.2181 3.56694
lowerback -5.785 1.60522 3.48475
upperback 6.5145 1.91773 -1.48656
thorax 10.3847 1.25649 -3.2686
lowerneck -4.13303 1.73969 2.44986
upperneck 12.3216 4.17082 -16.6872
head 4.75294 1.24022 -5.40269
rclavicle -6.36111e-015 8.34896e-015
rhumerus -32.3174 -11.1901 -87.3896
rradius 55.6106
rwrist 1.41407
rhand -5.89566 9.16532
rfingers 7.12502
rthumb 19.9327 -19.8324
lclavicle -6.36111e-015 8.34896e-015
lhumerus -31.2107 -3.74908 87.541
lradius 25.5692
lwrist -20.7513
lhand -20.3786 -6.48558
lfingers 7.12502
lthumb 5.97434 23.4102
rfemur -12.0465 -13.0443 10.7295
rtibia 26.8681
rfoot -15.8967 8.88207
rtoes -13.0601
lfemur -15.2705 14.3242 -15.6052
ltibia 30.9902
lfoot -12.3552 -1.66977
ltoes -8.43275
